<svg width="1920" height="427" viewBox="0 0 1920 427" fill="none" xmlns="http://www.w3.org/2000/svg">
<path d="M512.144 110.72H563.696V205.184H599.696V110.72H651.536V344H599.696V242.048H563.696V344H512.144V110.72ZM687.061 110.72H791.893V145.856H738.613V203.744H779.221V239.456H738.613V309.152H792.469V344H687.061V110.72ZM816.738 110.72H868.29V205.184H904.29V110.72H956.13V344H904.29V242.048H868.29V344H816.738V110.72ZM991.655 110.72H1096.49V145.856H1043.21V203.744H1083.82V239.456H1043.21V309.152H1097.06V344H991.655V110.72ZM1121.33 110.72H1172.88V205.184H1208.88V110.72H1260.72V344H1208.88V242.048H1172.88V344H1121.33V110.72ZM1296.25 110.72H1401.08V145.856H1347.8V203.744H1388.41V239.456H1347.8V309.152H1401.66V344H1296.25V110.72Z" fill="black"/>
</svg>
