<svg width="158" height="187" viewBox="0 0 158 187" fill="none" xmlns="http://www.w3.org/2000/svg">
<path d="M48.8663 29.8878L31.7925 55.8075L36.3063 78.9575L17.4662 66.0965L0 74.0108V97.9521L17.4662 119.321L32.9699 120.508L42.9788 116.353L48 132.577H111L116.769 108.241L133.45 105.669L144.636 86.6741L147.384 67.8772L124.815 63.5242L118.731 68.8665L117.75 58.3798L157 34.2407V16.0375L155.43 10.8931L148.757 1L126.385 4.16579L110.292 28.5027L103.816 20.7861L83.995 16.0375L51.4175 26.9199L48.8663 29.8878Z" stroke="black"/>
<path d="M114.217 132.577H79.7756H45.3337V147.021H49.0625L57.5013 186H105.582L112.059 147.021H114.217V132.577Z" stroke="black"/>
</svg>
