<svg width="531" height="372" viewBox="0 0 531 372" fill="none" xmlns="http://www.w3.org/2000/svg">
<g clip-path="url(#clip0)">
<path d="M128.012 29.701L129.136 29.7869H130.262H200.755V54.9965H147.438C122.484 54.9965 104.351 67.1004 94.9316 84.799C87.6236 98.53 86.7354 113.256 87.7841 123.594C87.5855 137.814 91.4241 150.912 99.4498 161.821C107.714 173.054 118.773 179.744 128.937 183.686C135.816 186.353 142.954 188.031 149.909 188.999V234.337L95.4253 342.5H50.4733L106.48 243.065L123.556 212.746L90.8519 200.862C61.6768 190.259 54.0947 171.829 50.9849 164.27C50.9074 164.082 50.8326 163.9 50.7604 163.725L50.5267 163.16L50.2699 162.606L49.1104 160.101C49.009 159.675 48.5965 158.095 48.0326 154.863C47.328 150.823 46.6515 145.821 46.0243 140.418C45.0989 132.446 44.3958 124.684 43.8536 118.698C43.739 117.433 43.6316 116.247 43.5308 115.155C43.6225 113.441 43.6951 111.618 43.7713 109.704C44.4617 92.3665 45.449 67.5739 63.6528 48.2377C70.2275 41.254 81.1425 35.888 94.8263 32.6693C108.244 29.5131 121.161 29.1769 128.012 29.701Z" stroke="#FDB601" stroke-width="59"/>
<path d="M401.808 208.778C368.203 208.245 306.802 208.367 262.716 208.58V32.7136H423.399H424.489L425.576 32.6406C437.901 31.8132 456.783 34.438 471.686 43.7569C484.635 51.8533 496.862 66.1765 497.706 95.8932L497.706 95.8938C499.151 146.748 495.781 170.148 490.909 182.237C487.775 190.015 484.131 193.777 470.48 200.615C464.135 202.889 439.373 209.375 401.809 208.778L401.808 208.778ZM317.965 51.7103H285.465V84.2103V159.063V191.563H317.965H387.178C393.913 191.563 401.831 191.507 409.331 190.608C416.866 189.705 426.464 187.708 435.676 182.231C457.473 169.269 463.011 146.385 463.541 125.879L463.541 125.879C464.264 97.9074 454.165 75.5859 433.555 62.8779C417.729 53.12 399.726 52.2368 392.43 51.8788C392.017 51.8586 391.639 51.84 391.297 51.8216C391.296 51.8216 391.295 51.8215 391.294 51.8214L390.91 51.8008C390.652 51.7868 390.409 51.7736 390.169 51.7603L389.269 51.7103H388.367H317.965ZM262.716 315.794H286.145V339.426H262.716V315.794Z" stroke="white" stroke-width="65"/>
</g>
<defs>
<clipPath id="clip0">
<rect width="531" height="372" fill="white"/>
</clipPath>
</defs>
</svg>
